<svg xmlns="http://www.w3.org/2000/svg" xmlns:xlink="http://www.w3.org/1999/xlink" width="500" zoomAndPan="magnify" viewBox="0 0 375 82.499998" height="110" preserveAspectRatio="xMidYMid meet" version="1.0"><defs><g/></defs><path fill="rgb(0%, 36.468506%, 50.19989%)" d="M 44.933594 65.640625 L 49.773438 59.707031 C 50.320312 59.019531 50.769531 58.265625 51.042969 57.445312 C 51.316406 56.621094 51.453125 55.796875 51.453125 54.972656 L 51.453125 54.425781 C 51.453125 53.535156 51.246094 52.640625 50.90625 51.714844 C 50.5625 50.789062 50.046875 49.964844 49.359375 49.210938 C 48.675781 48.492188 47.851562 47.910156 46.890625 47.425781 C 45.894531 46.949219 44.761719 46.707031 43.527344 46.707031 L 43.152344 46.707031 C 42.257812 46.707031 41.402344 46.84375 40.644531 47.121094 C 39.855469 47.394531 39.167969 47.734375 38.550781 48.183594 C 37.933594 48.628906 37.386719 49.140625 36.9375 49.726562 C 36.457031 50.308594 36.117188 50.925781 35.910156 51.578125 C 35.839844 51.75 35.808594 51.886719 35.773438 52.023438 C 35.738281 52.160156 35.738281 52.332031 35.738281 52.503906 C 35.738281 52.8125 35.773438 53.121094 35.910156 53.429688 C 36.046875 53.773438 36.21875 54.046875 36.492188 54.324219 C 36.734375 54.597656 37.042969 54.800781 37.386719 54.972656 C 37.730469 55.144531 38.175781 55.214844 38.65625 55.214844 C 39.375 55.214844 39.957031 55.042969 40.40625 54.664062 C 40.851562 54.289062 41.160156 53.875 41.367188 53.429688 C 41.707031 52.605469 42.328125 52.160156 43.152344 52.160156 L 43.527344 52.160156 C 44.113281 52.160156 44.625 52.402344 45.039062 52.847656 C 45.449219 53.292969 45.6875 53.808594 45.6875 54.425781 C 45.6875 54.90625 45.65625 55.25 45.621094 55.523438 C 45.550781 55.796875 45.414062 56.105469 45.175781 56.414062 L 36.800781 66.703125 C 36.390625 67.1875 36.183594 67.734375 36.183594 68.351562 C 36.183594 68.660156 36.21875 68.96875 36.355469 69.277344 C 36.492188 69.621094 36.664062 69.894531 36.90625 70.167969 C 37.144531 70.445312 37.453125 70.648438 37.832031 70.820312 C 38.175781 70.992188 38.621094 71.058594 39.101562 71.058594 L 48.535156 71.058594 C 49.019531 71.058594 49.429688 70.992188 49.808594 70.820312 C 50.148438 70.648438 50.457031 70.445312 50.699219 70.167969 C 50.941406 69.894531 51.109375 69.621094 51.246094 69.277344 C 51.351562 68.96875 51.417969 68.660156 51.417969 68.351562 C 51.417969 68.042969 51.351562 67.734375 51.214844 67.390625 C 51.078125 67.082031 50.90625 66.808594 50.664062 66.535156 C 50.390625 66.292969 50.082031 66.085938 49.738281 65.917969 C 49.394531 65.742188 48.984375 65.640625 48.503906 65.640625 Z M 44.933594 65.640625 " fill-opacity="1" fill-rule="nonzero"/><path fill="rgb(100%, 56.858826%, 30.198669%)" d="M 11.203125 17.945312 C 10.339844 17.945312 9.542969 18.128906 8.925781 18.4375 C 8.308594 18.742188 7.757812 19.113281 7.324219 19.605469 C 6.832031 20.097656 6.523438 20.589844 6.277344 21.144531 C 6.03125 21.757812 5.96875 22.3125 5.96875 22.804688 C 5.96875 23.421875 6.09375 24.035156 6.339844 24.589844 C 6.585938 25.144531 6.894531 25.636719 7.386719 26.066406 C 7.816406 26.5625 8.371094 26.929688 9.046875 27.175781 C 9.664062 27.421875 10.402344 27.546875 11.265625 27.546875 L 18.410156 27.546875 C 18.53125 27.546875 18.714844 27.667969 18.902344 27.792969 C 19.085938 27.976562 19.207031 28.222656 19.207031 28.53125 L 19.207031 56.597656 C 19.207031 57.152344 19.269531 57.707031 19.515625 58.261719 C 19.761719 58.875 20.070312 59.367188 20.503906 59.859375 C 20.933594 60.355469 21.488281 60.785156 22.105469 61.09375 C 22.71875 61.402344 23.519531 61.523438 24.382812 61.523438 C 25.242188 61.523438 25.980469 61.402344 26.660156 61.09375 C 27.277344 60.785156 27.828125 60.414062 28.261719 59.921875 C 28.691406 59.429688 29 58.9375 29.246094 58.324219 C 29.429688 57.769531 29.554688 57.214844 29.554688 56.660156 L 29.554688 28.589844 C 29.554688 28.285156 29.617188 28.039062 29.859375 27.855469 C 30.046875 27.730469 30.230469 27.609375 30.355469 27.609375 L 37.496094 27.609375 C 38.359375 27.609375 39.097656 27.484375 39.777344 27.175781 C 40.390625 26.867188 40.945312 26.5 41.375 26.007812 C 41.808594 25.578125 42.117188 25.082031 42.363281 24.46875 C 42.546875 23.851562 42.671875 23.300781 42.671875 22.746094 C 42.671875 22.253906 42.546875 21.699219 42.300781 21.082031 C 42.054688 20.527344 41.746094 20.035156 41.316406 19.542969 C 40.824219 19.113281 40.269531 18.742188 39.652344 18.4375 C 39.039062 18.128906 38.296875 17.945312 37.4375 17.945312 Z M 11.203125 17.945312 " fill-opacity="1" fill-rule="nonzero"/><path fill="rgb(100%, 56.858826%, 30.198669%)" d="M 67.425781 31.097656 L 67.425781 23.027344 C 67.425781 22.464844 67.300781 21.898438 67.050781 21.277344 C 66.800781 20.710938 66.488281 20.210938 66.046875 19.710938 C 65.546875 19.273438 64.984375 18.898438 64.359375 18.585938 C 63.734375 18.273438 62.984375 18.085938 62.105469 18.085938 C 61.230469 18.085938 60.414062 18.273438 59.789062 18.585938 C 59.164062 18.898438 58.601562 19.273438 58.164062 19.773438 C 57.664062 20.273438 57.351562 20.773438 57.097656 21.339844 C 56.847656 21.960938 56.785156 22.527344 56.785156 23.089844 L 56.785156 57.5 C 56.785156 58.0625 56.847656 58.625 57.097656 59.1875 C 57.351562 59.8125 57.664062 60.3125 58.101562 60.8125 C 58.539062 61.3125 59.101562 61.75 59.726562 62.066406 C 60.351562 62.378906 61.167969 62.503906 62.042969 62.503906 C 62.921875 62.503906 63.671875 62.378906 64.359375 62.066406 C 64.984375 61.75 65.546875 61.375 65.984375 60.875 C 66.425781 60.375 66.738281 59.875 66.988281 59.25 C 67.175781 58.6875 67.300781 58.125 67.300781 57.5625 L 67.300781 46.925781 L 82.757812 61.125 C 83.195312 61.5625 83.699219 61.941406 84.324219 62.191406 C 84.949219 62.441406 85.640625 62.566406 86.449219 62.566406 C 87.328125 62.566406 88.078125 62.441406 88.765625 62.128906 C 89.394531 61.8125 89.957031 61.4375 90.394531 60.9375 C 90.832031 60.4375 91.144531 59.9375 91.394531 59.3125 C 91.644531 58.6875 91.769531 58.125 91.769531 57.5625 C 91.769531 56.246094 91.207031 55.058594 90.144531 54.058594 L 73.808594 39.105469 L 87.203125 26.71875 C 87.765625 26.21875 88.203125 25.65625 88.453125 25.027344 C 88.703125 24.402344 88.828125 23.714844 88.828125 23.089844 C 88.828125 22.589844 88.703125 22.023438 88.515625 21.402344 C 88.265625 20.835938 87.953125 20.273438 87.578125 19.773438 C 87.140625 19.273438 86.574219 18.898438 85.949219 18.585938 C 85.324219 18.273438 84.574219 18.085938 83.699219 18.085938 C 82.882812 18.085938 82.195312 18.210938 81.570312 18.460938 C 80.941406 18.710938 80.445312 19.085938 80.007812 19.523438 Z M 67.425781 31.097656 " fill-opacity="1" fill-rule="nonzero"/><path fill="rgb(97.648621%, 98.039246%, 99.21875%)" d="M 318.175781 23.589844 C 309.871094 23.589844 303.136719 31.550781 303.136719 41.371094 C 303.136719 51.191406 309.871094 59.152344 318.175781 59.152344 C 326.480469 59.152344 333.214844 51.191406 333.214844 41.371094 C 333.214844 31.550781 326.480469 23.589844 318.175781 23.589844 " fill-opacity="1" fill-rule="nonzero"/><path fill="rgb(0%, 0%, 0%)" d="M 356.085938 44.882812 C 358.214844 44.882812 360.117188 44.539062 361.785156 43.789062 C 363.457031 43.097656 364.835938 42.121094 365.988281 40.96875 C 367.140625 39.816406 368.003906 38.4375 368.578125 36.941406 C 369.15625 35.441406 369.5 33.890625 369.5 32.277344 C 369.5 30.722656 369.210938 29.167969 368.636719 27.671875 C 368.0625 26.175781 367.199219 24.792969 366.046875 23.585938 C 364.894531 22.4375 363.511719 21.457031 361.84375 20.765625 C 360.171875 20.074219 358.273438 19.671875 356.144531 19.671875 L 346.757812 19.671875 C 345.949219 19.671875 345.203125 19.847656 344.625 20.132812 C 344.050781 20.421875 343.53125 20.765625 343.128906 21.226562 C 342.667969 21.6875 342.382812 22.148438 342.148438 22.664062 C 341.921875 23.242188 341.863281 23.761719 341.863281 24.277344 L 341.863281 55.933594 C 341.863281 56.453125 341.921875 56.96875 342.148438 57.488281 C 342.382812 58.0625 342.667969 58.523438 343.074219 58.984375 C 343.472656 59.445312 343.992188 59.847656 344.570312 60.136719 C 345.144531 60.421875 345.894531 60.539062 346.699219 60.539062 C 347.507812 60.539062 348.195312 60.421875 348.832031 60.136719 C 349.40625 59.847656 349.925781 59.5 350.328125 59.042969 C 350.730469 58.582031 351.015625 58.121094 351.25 57.546875 C 351.421875 57.027344 351.535156 56.511719 351.535156 55.992188 L 351.535156 45.804688 C 351.535156 45.515625 351.59375 45.285156 351.824219 45.113281 C 351.996094 44.996094 352.167969 44.882812 352.285156 44.882812 Z M 351.535156 34.753906 L 351.535156 29.6875 C 351.535156 29.402344 351.59375 29.167969 351.824219 28.996094 C 351.996094 28.882812 352.167969 28.765625 352.285156 28.765625 L 356.085938 28.765625 C 357.234375 28.765625 358.160156 29.113281 358.792969 29.6875 C 359.425781 30.261719 359.769531 31.125 359.769531 32.21875 C 359.769531 33.371094 359.425781 34.234375 358.792969 34.808594 C 358.160156 35.386719 357.234375 35.675781 356.085938 35.675781 L 352.285156 35.675781 C 352.167969 35.675781 351.996094 35.617188 351.824219 35.441406 C 351.59375 35.328125 351.535156 35.097656 351.535156 34.753906 Z M 351.535156 34.753906 " fill-opacity="1" fill-rule="nonzero"/><path fill="rgb(97.648621%, 98.039246%, 99.21875%)" d="M 319.109375 10.695312 C 316.699219 10.695312 314.742188 13.011719 314.742188 15.871094 C 314.742188 18.726562 316.699219 21.042969 319.109375 21.042969 C 321.519531 21.042969 323.476562 18.726562 323.476562 15.871094 C 323.476562 13.011719 321.519531 10.695312 319.109375 10.695312 " fill-opacity="1" fill-rule="nonzero"/><path fill="rgb(97.648621%, 98.039246%, 99.21875%)" d="M 333.0625 15.917969 C 330.652344 15.917969 328.699219 18.234375 328.699219 21.089844 C 328.699219 23.949219 330.652344 26.265625 333.0625 26.265625 C 335.476562 26.265625 337.433594 23.949219 337.433594 21.089844 C 337.433594 18.234375 335.476562 15.917969 333.0625 15.917969 " fill-opacity="1" fill-rule="nonzero"/><path fill="rgb(97.648621%, 98.039246%, 99.21875%)" d="M 303.078125 15.917969 C 300.667969 15.917969 298.714844 18.234375 298.714844 21.089844 C 298.714844 23.949219 300.667969 26.265625 303.078125 26.265625 C 305.488281 26.265625 307.445312 23.949219 307.445312 21.089844 C 307.445312 18.234375 305.488281 15.917969 303.078125 15.917969 " fill-opacity="1" fill-rule="nonzero"/><path fill="rgb(0%, 0%, 0%)" d="M 235.59375 60.367188 C 237.78125 60.367188 239.851562 60.136719 241.8125 59.5625 C 243.710938 58.984375 245.382812 58.179688 246.761719 57.144531 C 248.144531 56.105469 249.296875 54.78125 250.101562 53.226562 C 250.910156 51.730469 251.3125 49.949219 251.3125 47.933594 C 251.3125 45.863281 250.851562 44.078125 250.046875 42.695312 C 249.238281 41.316406 248.144531 40.105469 246.820312 39.183594 C 245.4375 38.265625 243.941406 37.574219 242.269531 37 C 240.546875 36.480469 238.875 36.019531 237.203125 35.617188 C 236.800781 35.558594 236.285156 35.441406 235.652344 35.328125 C 235.015625 35.214844 234.382812 35.042969 233.691406 34.808594 C 233.003906 34.636719 232.425781 34.410156 231.851562 34.175781 C 231.273438 33.949219 230.871094 33.660156 230.640625 33.3125 C 230.46875 33.140625 230.410156 32.796875 230.410156 32.21875 C 230.410156 31.125 230.871094 30.261719 231.90625 29.628906 C 232.886719 29.054688 234.152344 28.710938 235.707031 28.710938 C 236.226562 28.710938 236.6875 28.765625 237.089844 28.765625 C 237.4375 28.824219 237.78125 28.882812 238.125 28.996094 C 238.472656 29.113281 238.761719 29.285156 239.105469 29.515625 C 239.394531 29.746094 239.738281 29.976562 240.140625 30.261719 C 241.0625 31.070312 242.097656 31.414062 243.367188 31.414062 C 244.171875 31.414062 244.863281 31.300781 245.4375 31.011719 C 246.015625 30.722656 246.53125 30.378906 246.9375 29.917969 C 247.339844 29.515625 247.628906 29.054688 247.855469 28.480469 C 248.089844 27.960938 248.203125 27.445312 248.203125 26.925781 C 248.203125 25.714844 247.742188 24.621094 246.820312 23.703125 C 245.324219 22.203125 243.652344 21.171875 241.753906 20.535156 C 239.851562 19.960938 237.839844 19.613281 235.652344 19.613281 C 233.519531 19.613281 231.5625 19.960938 229.71875 20.535156 C 227.875 21.171875 226.265625 22.03125 224.941406 23.125 C 223.617188 24.21875 222.578125 25.542969 221.832031 27.039062 C 221.027344 28.59375 220.679688 30.261719 220.679688 32.046875 C 220.679688 34.234375 221.082031 36.019531 221.945312 37.398438 C 222.75 38.78125 223.847656 39.933594 225.226562 40.855469 C 226.550781 41.773438 228.050781 42.464844 229.777344 42.984375 C 231.445312 43.558594 233.117188 44.019531 234.84375 44.421875 C 235.191406 44.480469 235.652344 44.59375 236.339844 44.710938 C 236.976562 44.882812 237.664062 45.054688 238.355469 45.285156 C 239.046875 45.515625 239.679688 45.746094 240.257812 45.976562 C 240.832031 46.207031 241.234375 46.496094 241.464844 46.78125 C 241.582031 47.070312 241.695312 47.472656 241.695312 47.933594 C 241.695312 49.199219 241.121094 50.0625 239.96875 50.523438 C 238.816406 51.042969 237.378906 51.269531 235.59375 51.269531 C 235.074219 51.269531 234.5 51.269531 233.921875 51.214844 C 233.289062 51.214844 232.65625 51.15625 232.023438 51.042969 C 231.390625 50.925781 230.8125 50.8125 230.238281 50.582031 C 229.660156 50.351562 229.144531 50.0625 228.796875 49.71875 C 228.109375 49.140625 227.53125 48.679688 226.957031 48.335938 C 226.378906 47.992188 225.574219 47.761719 224.652344 47.761719 C 223.847656 47.761719 223.097656 47.933594 222.523438 48.222656 C 221.945312 48.507812 221.429688 48.855469 221.027344 49.316406 C 220.621094 49.773438 220.332031 50.292969 220.105469 50.8125 C 219.875 51.386719 219.816406 51.90625 219.816406 52.367188 C 219.816406 53.460938 220.160156 54.4375 220.964844 55.300781 C 221.832031 56.335938 222.867188 57.199219 224.019531 57.832031 C 225.171875 58.523438 226.378906 59.042969 227.648438 59.386719 C 228.914062 59.734375 230.238281 60.019531 231.617188 60.136719 C 232.941406 60.308594 234.269531 60.367188 235.59375 60.367188 Z M 235.59375 60.367188 " fill-opacity="1" fill-rule="nonzero"/><path fill="rgb(0%, 0%, 0%)" d="M 283.910156 33.890625 L 270.550781 33.890625 C 270.433594 33.890625 270.261719 33.832031 270.089844 33.660156 C 269.859375 33.542969 269.800781 33.3125 269.800781 32.96875 L 269.800781 24.21875 C 269.800781 23.703125 269.6875 23.183594 269.457031 22.609375 C 269.226562 22.089844 268.9375 21.628906 268.535156 21.171875 C 268.074219 20.765625 267.558594 20.421875 266.980469 20.132812 C 266.40625 19.847656 265.714844 19.671875 264.910156 19.671875 C 264.101562 19.671875 263.351562 19.847656 262.777344 20.132812 C 262.199219 20.421875 261.683594 20.765625 261.28125 21.226562 C 260.820312 21.6875 260.53125 22.148438 260.300781 22.664062 C 260.070312 23.242188 260.015625 23.761719 260.015625 24.277344 L 260.015625 55.933594 C 260.015625 56.453125 260.070312 56.96875 260.300781 57.488281 C 260.53125 58.0625 260.820312 58.523438 261.222656 58.984375 C 261.625 59.445312 262.144531 59.847656 262.71875 60.136719 C 263.296875 60.421875 264.042969 60.539062 264.847656 60.539062 C 265.65625 60.539062 266.347656 60.421875 266.980469 60.136719 C 267.558594 59.847656 268.074219 59.5 268.476562 59.042969 C 268.882812 58.582031 269.167969 58.121094 269.398438 57.546875 C 269.570312 57.027344 269.6875 56.511719 269.6875 55.992188 L 269.6875 43.960938 C 269.6875 43.671875 269.742188 43.445312 269.976562 43.273438 C 270.148438 43.15625 270.320312 43.039062 270.433594 43.039062 L 283.792969 43.039062 C 283.910156 43.039062 284.082031 43.15625 284.253906 43.273438 C 284.425781 43.445312 284.542969 43.671875 284.542969 43.960938 L 284.542969 55.992188 C 284.542969 56.511719 284.601562 57.027344 284.828125 57.546875 C 285.058594 58.121094 285.347656 58.582031 285.753906 59.042969 C 286.152344 59.5 286.671875 59.90625 287.25 60.195312 C 287.824219 60.480469 288.574219 60.597656 289.378906 60.597656 C 290.1875 60.597656 290.875 60.480469 291.511719 60.195312 C 292.085938 59.90625 292.601562 59.5625 293.007812 59.101562 C 293.410156 58.640625 293.695312 58.179688 293.929688 57.601562 C 294.101562 57.085938 294.214844 56.566406 294.214844 56.050781 L 294.214844 24.335938 C 294.214844 23.875 294.101562 23.355469 293.871094 22.78125 C 293.640625 22.261719 293.351562 21.804688 292.949219 21.34375 C 292.488281 20.9375 291.96875 20.59375 291.394531 20.304688 C 290.820312 20.019531 290.128906 19.847656 289.320312 19.847656 C 288.515625 19.847656 287.765625 20.019531 287.191406 20.304688 C 286.617188 20.59375 286.097656 20.9375 285.691406 21.398438 C 285.234375 21.859375 284.945312 22.320312 284.714844 22.839844 C 284.484375 23.414062 284.425781 23.933594 284.425781 24.394531 L 284.425781 33.199219 C 284.425781 33.542969 284.367188 33.71875 284.253906 33.773438 C 284.140625 33.890625 284.023438 33.890625 283.910156 33.890625 Z M 283.910156 33.890625 " fill-opacity="1" fill-rule="nonzero"/><g fill="rgb(44.709778%, 25.099182%, 12.939453%)" fill-opacity="1"><g transform="translate(160.253372, 60.136567)"><g><path d="M 6.925781 0 L 19.25 0 C 19.859375 0 20.382812 -0.0859375 20.859375 -0.304688 C 21.296875 -0.523438 21.6875 -0.785156 21.992188 -1.132812 C 22.296875 -1.480469 22.515625 -1.828125 22.691406 -2.265625 C 22.820312 -2.65625 22.90625 -3.046875 22.90625 -3.441406 C 22.90625 -3.832031 22.820312 -4.222656 22.644531 -4.660156 C 22.472656 -5.050781 22.253906 -5.398438 21.949219 -5.75 C 21.601562 -6.054688 21.207031 -6.316406 20.773438 -6.53125 C 20.339844 -6.75 19.816406 -6.882812 19.207031 -6.882812 L 11.105469 -6.882812 C 11.019531 -6.882812 10.886719 -6.925781 10.757812 -7.011719 C 10.582031 -7.097656 10.539062 -7.273438 10.539062 -7.535156 L 10.539062 -12.0625 C 10.539062 -12.28125 10.582031 -12.457031 10.757812 -12.585938 C 10.886719 -12.671875 11.019531 -12.761719 11.105469 -12.761719 L 16.941406 -12.761719 C 17.550781 -12.761719 18.074219 -12.847656 18.507812 -13.066406 C 18.945312 -13.28125 19.335938 -13.542969 19.640625 -13.890625 C 19.945312 -14.242188 20.164062 -14.589844 20.339844 -15.023438 C 20.511719 -15.417969 20.597656 -15.808594 20.597656 -16.199219 C 20.597656 -16.59375 20.511719 -16.984375 20.339844 -17.421875 C 20.164062 -17.8125 19.945312 -18.160156 19.640625 -18.507812 C 19.292969 -18.8125 18.902344 -19.074219 18.464844 -19.292969 C 18.03125 -19.511719 17.507812 -19.640625 16.898438 -19.640625 L 11.0625 -19.640625 C 10.976562 -19.640625 10.84375 -19.683594 10.714844 -19.773438 C 10.539062 -19.859375 10.496094 -20.03125 10.496094 -20.292969 L 10.496094 -23.300781 C 10.496094 -23.515625 10.539062 -23.691406 10.714844 -23.820312 C 10.84375 -23.910156 10.976562 -23.996094 11.0625 -23.996094 L 19.160156 -23.996094 C 19.773438 -23.996094 20.292969 -24.082031 20.773438 -24.300781 C 21.207031 -24.519531 21.601562 -24.78125 21.90625 -25.128906 C 22.210938 -25.433594 22.429688 -25.78125 22.601562 -26.21875 C 22.734375 -26.609375 22.820312 -27 22.820312 -27.394531 C 22.820312 -27.785156 22.734375 -28.175781 22.558594 -28.613281 C 22.386719 -29.003906 22.167969 -29.351562 21.863281 -29.703125 C 21.515625 -30.007812 21.121094 -30.265625 20.6875 -30.484375 C 20.25 -30.703125 19.726562 -30.832031 19.117188 -30.832031 L 6.792969 -30.832031 C 6.183594 -30.832031 5.617188 -30.703125 5.183594 -30.484375 C 4.746094 -30.265625 4.355469 -30.007812 4.050781 -29.65625 C 3.703125 -29.308594 3.484375 -28.960938 3.308594 -28.570312 C 3.136719 -28.132812 3.09375 -27.742188 3.09375 -27.394531 L 3.09375 -3.398438 C 3.09375 -2.960938 3.179688 -2.527344 3.351562 -2.132812 C 3.527344 -1.699219 3.789062 -1.351562 4.136719 -1.046875 C 4.484375 -0.695312 4.878906 -0.433594 5.355469 -0.261719 C 5.835938 -0.0859375 6.359375 0 6.925781 0 Z M 6.925781 0 "/></g></g></g><g fill="rgb(44.709778%, 25.099182%, 12.939453%)" fill-opacity="1"><g transform="translate(186.466031, 60.136567)"><g><path d="M 6.882812 -30.789062 C 6.269531 -30.789062 5.703125 -30.660156 5.269531 -30.441406 C 4.835938 -30.222656 4.441406 -29.960938 4.136719 -29.613281 C 3.789062 -29.265625 3.570312 -28.917969 3.398438 -28.523438 C 3.222656 -28.089844 3.179688 -27.699219 3.179688 -27.347656 C 3.179688 -26.914062 3.265625 -26.476562 3.441406 -26.085938 C 3.613281 -25.695312 3.832031 -25.347656 4.179688 -25.042969 C 4.484375 -24.691406 4.878906 -24.433594 5.355469 -24.257812 C 5.792969 -24.082031 6.316406 -23.996094 6.925781 -23.996094 L 11.976562 -23.996094 C 12.0625 -23.996094 12.195312 -23.910156 12.324219 -23.820312 C 12.457031 -23.691406 12.542969 -23.515625 12.542969 -23.300781 L 12.542969 -3.441406 C 12.542969 -3.046875 12.585938 -2.65625 12.761719 -2.265625 C 12.933594 -1.828125 13.152344 -1.480469 13.457031 -1.132812 C 13.761719 -0.785156 14.152344 -0.480469 14.589844 -0.261719 C 15.023438 -0.0429688 15.589844 0.0429688 16.199219 0.0429688 C 16.808594 0.0429688 17.332031 -0.0429688 17.8125 -0.261719 C 18.246094 -0.480469 18.640625 -0.742188 18.945312 -1.089844 C 19.25 -1.4375 19.46875 -1.785156 19.640625 -2.222656 C 19.773438 -2.613281 19.859375 -3.003906 19.859375 -3.398438 L 19.859375 -23.253906 C 19.859375 -23.472656 19.902344 -23.648438 20.078125 -23.777344 C 20.207031 -23.867188 20.339844 -23.953125 20.425781 -23.953125 L 25.476562 -23.953125 C 26.085938 -23.953125 26.609375 -24.039062 27.089844 -24.257812 C 27.523438 -24.476562 27.914062 -24.738281 28.21875 -25.085938 C 28.523438 -25.390625 28.742188 -25.738281 28.917969 -26.171875 C 29.046875 -26.609375 29.136719 -27 29.136719 -27.394531 C 29.136719 -27.742188 29.046875 -28.132812 28.875 -28.570312 C 28.699219 -28.960938 28.480469 -29.308594 28.175781 -29.65625 C 27.828125 -29.960938 27.4375 -30.222656 27 -30.441406 C 26.566406 -30.660156 26.042969 -30.789062 25.433594 -30.789062 Z M 6.882812 -30.789062 "/></g></g></g><g fill="rgb(44.709778%, 25.099182%, 12.939453%)" fill-opacity="1"><g transform="translate(122.121551, 61.758726)"><g><path d="M 19.457031 -16.375 C 21.691406 -16.375 23.6875 -16.738281 25.4375 -17.523438 C 27.191406 -18.246094 28.640625 -19.273438 29.847656 -20.484375 C 31.058594 -21.691406 31.964844 -23.140625 32.566406 -24.710938 C 33.171875 -26.285156 33.535156 -27.914062 33.535156 -29.605469 C 33.535156 -31.238281 33.230469 -32.871094 32.628906 -34.441406 C 32.023438 -36.011719 31.117188 -37.460938 29.910156 -38.730469 C 28.699219 -39.9375 27.25 -40.964844 25.5 -41.691406 C 23.746094 -42.417969 21.753906 -42.839844 19.515625 -42.839844 L 9.667969 -42.839844 C 8.820312 -42.839844 8.035156 -42.660156 7.433594 -42.355469 C 6.828125 -42.054688 6.285156 -41.691406 5.859375 -41.207031 C 5.378906 -40.726562 5.074219 -40.242188 4.832031 -39.699219 C 4.59375 -39.09375 4.53125 -38.550781 4.53125 -38.003906 L 4.53125 -4.773438 C 4.53125 -4.230469 4.59375 -3.6875 4.832031 -3.140625 C 5.074219 -2.539062 5.378906 -2.054688 5.800781 -1.570312 C 6.222656 -1.085938 6.765625 -0.664062 7.371094 -0.363281 C 7.976562 -0.0585938 8.761719 0.0585938 9.605469 0.0585938 C 10.453125 0.0585938 11.179688 -0.0585938 11.84375 -0.363281 C 12.445312 -0.664062 12.992188 -1.027344 13.414062 -1.511719 C 13.835938 -1.992188 14.140625 -2.476562 14.378906 -3.082031 C 14.5625 -3.625 14.683594 -4.167969 14.683594 -4.714844 L 14.683594 -15.40625 C 14.683594 -15.710938 14.742188 -15.953125 14.984375 -16.132812 C 15.167969 -16.253906 15.347656 -16.375 15.46875 -16.375 Z M 14.683594 -27.007812 L 14.683594 -32.324219 C 14.683594 -32.628906 14.742188 -32.871094 14.984375 -33.050781 C 15.167969 -33.171875 15.347656 -33.292969 15.46875 -33.292969 L 19.457031 -33.292969 C 20.664062 -33.292969 21.632812 -32.929688 22.296875 -32.324219 C 22.960938 -31.722656 23.324219 -30.816406 23.324219 -29.667969 C 23.324219 -28.460938 22.960938 -27.550781 22.296875 -26.949219 C 21.632812 -26.34375 20.664062 -26.042969 19.457031 -26.042969 L 15.46875 -26.042969 C 15.347656 -26.042969 15.167969 -26.101562 14.984375 -26.285156 C 14.742188 -26.40625 14.683594 -26.644531 14.683594 -27.007812 Z M 14.683594 -27.007812 "/></g></g></g></svg>