<svg xmlns="http://www.w3.org/2000/svg" width="600" viewBox="0 0 600 187.5" height="187.5" version="1.0"><path fill="#F9FAFD" d="M 470.371094 52.46875 C 451.160156 52.46875 435.585938 70.886719 435.585938 93.605469 C 435.585938 116.328125 451.160156 134.746094 470.371094 134.746094 C 489.578125 134.746094 505.152344 116.328125 505.152344 93.605469 C 505.152344 70.886719 489.578125 52.46875 470.371094 52.46875"/><g><g><g><path d="M 42.878906 -36.089844 C 47.808594 -36.089844 52.203125 -36.886719 56.0625 -38.617188 C 59.925781 -40.21875 63.121094 -42.480469 65.785156 -45.144531 C 68.449219 -47.808594 70.445312 -51.003906 71.777344 -54.464844 C 73.109375 -57.929688 73.910156 -61.523438 73.910156 -65.253906 C 73.910156 -68.847656 73.242188 -72.445312 71.910156 -75.90625 C 70.578125 -79.367188 68.582031 -82.566406 65.917969 -85.363281 C 63.253906 -88.023438 60.058594 -90.289062 56.199219 -91.886719 C 52.335938 -93.484375 47.941406 -94.417969 43.015625 -94.417969 L 21.308594 -94.417969 C 19.441406 -94.417969 17.710938 -94.015625 16.378906 -93.351562 C 15.046875 -92.6875 13.847656 -91.886719 12.917969 -90.820312 C 11.851562 -89.757812 11.1875 -88.691406 10.652344 -87.492188 C 10.121094 -86.160156 9.988281 -84.960938 9.988281 -83.761719 L 9.988281 -10.519531 C 9.988281 -9.320312 10.121094 -8.125 10.652344 -6.925781 C 11.1875 -5.59375 11.851562 -4.527344 12.785156 -3.460938 C 13.714844 -2.398438 14.914062 -1.464844 16.246094 -0.800781 C 17.578125 -0.132812 19.308594 0.132812 21.175781 0.132812 C 23.039062 0.132812 24.636719 -0.132812 26.101562 -0.800781 C 27.433594 -1.464844 28.632812 -2.265625 29.5625 -3.328125 C 30.496094 -4.394531 31.160156 -5.460938 31.695312 -6.792969 C 32.09375 -7.988281 32.359375 -9.1875 32.359375 -10.386719 L 32.359375 -33.957031 C 32.359375 -34.625 32.492188 -35.15625 33.027344 -35.554688 C 33.425781 -35.824219 33.824219 -36.089844 34.089844 -36.089844 Z M 32.359375 -59.527344 L 32.359375 -71.246094 C 32.359375 -71.910156 32.492188 -72.445312 33.027344 -72.84375 C 33.425781 -73.109375 33.824219 -73.375 34.089844 -73.375 L 42.878906 -73.375 C 45.542969 -73.375 47.675781 -72.578125 49.140625 -71.246094 C 50.605469 -69.914062 51.402344 -67.917969 51.402344 -65.386719 C 51.402344 -62.722656 50.605469 -60.726562 49.140625 -59.394531 C 47.675781 -58.0625 45.542969 -57.394531 42.878906 -57.394531 L 34.089844 -57.394531 C 33.824219 -57.394531 33.425781 -57.527344 33.027344 -57.929688 C 32.492188 -58.195312 32.359375 -58.726562 32.359375 -59.527344 Z M 32.359375 -59.527344" transform="translate(515.166 137.823)"/></g></g></g><path fill="#F9FAFD" d="M 472.53125 22.636719 C 466.953125 22.636719 462.429688 27.996094 462.429688 34.605469 C 462.429688 41.214844 466.953125 46.574219 472.53125 46.574219 C 478.105469 46.574219 482.628906 41.214844 482.628906 34.605469 C 482.628906 27.996094 478.105469 22.636719 472.53125 22.636719"/><path fill="#F9FAFD" d="M 504.804688 34.71875 C 499.230469 34.71875 494.707031 40.078125 494.707031 46.6875 C 494.707031 53.296875 499.230469 58.65625 504.804688 58.65625 C 510.382812 58.65625 514.90625 53.296875 514.90625 46.6875 C 514.90625 40.078125 510.382812 34.71875 504.804688 34.71875"/><path fill="#F9FAFD" d="M 435.457031 34.71875 C 429.878906 34.71875 425.359375 40.078125 425.359375 46.6875 C 425.359375 53.296875 429.878906 58.65625 435.457031 58.65625 C 441.03125 58.65625 445.554688 53.296875 445.554688 46.6875 C 445.554688 40.078125 441.03125 34.71875 435.457031 34.71875"/><g><g><g><path d="M 46.210938 -0.265625 C 51.269531 -0.265625 56.0625 -0.800781 60.59375 -2.128906 C 64.988281 -3.460938 68.847656 -5.328125 72.042969 -7.722656 C 75.242188 -10.121094 77.902344 -13.183594 79.769531 -16.78125 C 81.632812 -20.242188 82.566406 -24.371094 82.566406 -29.03125 C 82.566406 -33.824219 81.5 -37.953125 79.636719 -41.148438 C 77.769531 -44.34375 75.242188 -47.140625 72.179688 -49.273438 C 68.980469 -51.402344 65.519531 -53 61.65625 -54.332031 C 57.664062 -55.53125 53.800781 -56.597656 49.9375 -57.527344 C 49.007812 -57.664062 47.808594 -57.929688 46.34375 -58.195312 C 44.878906 -58.460938 43.414062 -58.859375 41.816406 -59.394531 C 40.21875 -59.792969 38.886719 -60.324219 37.554688 -60.859375 C 36.222656 -61.390625 35.289062 -62.058594 34.757812 -62.855469 C 34.359375 -63.253906 34.222656 -64.054688 34.222656 -65.386719 C 34.222656 -67.917969 35.289062 -69.914062 37.6875 -71.378906 C 39.949219 -72.710938 42.878906 -73.507812 46.476562 -73.507812 C 47.675781 -73.507812 48.738281 -73.375 49.671875 -73.375 C 50.472656 -73.242188 51.269531 -73.109375 52.070312 -72.84375 C 52.867188 -72.578125 53.535156 -72.179688 54.332031 -71.644531 C 55 -71.113281 55.796875 -70.578125 56.730469 -69.914062 C 58.859375 -68.050781 61.257812 -67.25 64.1875 -67.25 C 66.050781 -67.25 67.648438 -67.515625 68.980469 -68.183594 C 70.3125 -68.847656 71.511719 -69.648438 72.445312 -70.714844 C 73.375 -71.644531 74.042969 -72.710938 74.574219 -74.042969 C 75.109375 -75.242188 75.375 -76.4375 75.375 -77.636719 C 75.375 -80.433594 74.308594 -82.964844 72.179688 -85.09375 C 68.714844 -88.558594 64.851562 -90.953125 60.457031 -92.417969 C 56.0625 -93.75 51.402344 -94.550781 46.34375 -94.550781 C 41.414062 -94.550781 36.886719 -93.75 32.625 -92.417969 C 28.363281 -90.953125 24.636719 -88.957031 21.574219 -86.425781 C 18.511719 -83.898438 16.113281 -80.832031 14.382812 -77.371094 C 12.519531 -73.777344 11.71875 -69.914062 11.71875 -65.785156 C 11.71875 -60.726562 12.652344 -56.597656 14.648438 -53.402344 C 16.511719 -50.203125 19.042969 -47.542969 22.238281 -45.410156 C 25.300781 -43.28125 28.765625 -41.683594 32.757812 -40.484375 C 36.621094 -39.152344 40.484375 -38.085938 44.480469 -37.152344 C 45.277344 -37.019531 46.34375 -36.753906 47.941406 -36.488281 C 49.40625 -36.089844 51.003906 -35.6875 52.601562 -35.15625 C 54.199219 -34.625 55.664062 -34.089844 56.996094 -33.558594 C 58.328125 -33.027344 59.261719 -32.359375 59.792969 -31.695312 C 60.058594 -31.027344 60.324219 -30.097656 60.324219 -29.03125 C 60.324219 -26.101562 58.992188 -24.105469 56.332031 -23.039062 C 53.667969 -21.839844 50.339844 -21.308594 46.210938 -21.308594 C 45.011719 -21.308594 43.679688 -21.308594 42.347656 -21.441406 C 40.882812 -21.441406 39.417969 -21.574219 37.953125 -21.839844 C 36.488281 -22.105469 35.15625 -22.371094 33.824219 -22.90625 C 32.492188 -23.4375 31.292969 -24.105469 30.496094 -24.902344 C 28.898438 -26.234375 27.566406 -27.300781 26.234375 -28.097656 C 24.902344 -28.898438 23.039062 -29.429688 20.90625 -29.429688 C 19.042969 -29.429688 17.3125 -29.03125 15.980469 -28.363281 C 14.648438 -27.699219 13.449219 -26.898438 12.519531 -25.835938 C 11.585938 -24.769531 10.917969 -23.570312 10.386719 -22.371094 C 9.855469 -21.039062 9.722656 -19.84375 9.722656 -18.777344 C 9.722656 -16.246094 10.519531 -13.984375 12.382812 -11.984375 C 14.382812 -9.589844 16.78125 -7.589844 19.441406 -6.125 C 22.105469 -4.527344 24.902344 -3.328125 27.832031 -2.53125 C 30.761719 -1.730469 33.824219 -1.066406 37.019531 -0.800781 C 40.082031 -0.398438 43.148438 -0.265625 46.210938 -0.265625 Z M 46.210938 -0.265625" transform="translate(233.164 137.823)"/></g></g></g><g><g><g><path d="M 65.121094 -61.523438 L 34.222656 -61.523438 C 33.957031 -61.523438 33.558594 -61.65625 33.160156 -62.058594 C 32.625 -62.324219 32.492188 -62.855469 32.492188 -63.65625 L 32.492188 -83.898438 C 32.492188 -85.09375 32.226562 -86.292969 31.695312 -87.625 C 31.160156 -88.824219 30.496094 -89.890625 29.5625 -90.953125 C 28.5 -91.886719 27.300781 -92.6875 25.96875 -93.351562 C 24.636719 -94.015625 23.039062 -94.417969 21.175781 -94.417969 C 19.308594 -94.417969 17.578125 -94.015625 16.246094 -93.351562 C 14.914062 -92.6875 13.714844 -91.886719 12.785156 -90.820312 C 11.71875 -89.757812 11.054688 -88.691406 10.519531 -87.492188 C 9.988281 -86.160156 9.855469 -84.960938 9.855469 -83.761719 L 9.855469 -10.519531 C 9.855469 -9.320312 9.988281 -8.125 10.519531 -6.925781 C 11.054688 -5.59375 11.71875 -4.527344 12.652344 -3.460938 C 13.582031 -2.398438 14.78125 -1.464844 16.113281 -0.800781 C 17.445312 -0.132812 19.175781 0.132812 21.039062 0.132812 C 22.90625 0.132812 24.503906 -0.132812 25.96875 -0.800781 C 27.300781 -1.464844 28.5 -2.265625 29.429688 -3.328125 C 30.363281 -4.394531 31.027344 -5.460938 31.5625 -6.792969 C 31.960938 -7.988281 32.226562 -9.1875 32.226562 -10.386719 L 32.226562 -38.21875 C 32.226562 -38.886719 32.359375 -39.417969 32.894531 -39.816406 C 33.292969 -40.082031 33.691406 -40.351562 33.957031 -40.351562 L 64.851562 -40.351562 C 65.121094 -40.351562 65.519531 -40.082031 65.917969 -39.816406 C 66.316406 -39.417969 66.585938 -38.886719 66.585938 -38.21875 L 66.585938 -10.386719 C 66.585938 -9.1875 66.71875 -7.988281 67.25 -6.792969 C 67.78125 -5.460938 68.449219 -4.394531 69.382812 -3.328125 C 70.3125 -2.265625 71.511719 -1.332031 72.84375 -0.664062 C 74.175781 0 75.90625 0.265625 77.769531 0.265625 C 79.636719 0.265625 81.234375 0 82.699219 -0.664062 C 84.03125 -1.332031 85.226562 -2.128906 86.160156 -3.195312 C 87.09375 -4.261719 87.757812 -5.328125 88.292969 -6.660156 C 88.691406 -7.855469 88.957031 -9.054688 88.957031 -10.253906 L 88.957031 -83.628906 C 88.957031 -84.695312 88.691406 -85.894531 88.15625 -87.226562 C 87.625 -88.425781 86.960938 -89.488281 86.027344 -90.554688 C 84.960938 -91.488281 83.761719 -92.285156 82.433594 -92.953125 C 81.101562 -93.617188 79.503906 -94.015625 77.636719 -94.015625 C 75.773438 -94.015625 74.042969 -93.617188 72.710938 -92.953125 C 71.378906 -92.285156 70.179688 -91.488281 69.246094 -90.421875 C 68.183594 -89.355469 67.515625 -88.292969 66.984375 -87.09375 C 66.453125 -85.761719 66.316406 -84.5625 66.316406 -83.496094 L 66.316406 -63.121094 C 66.316406 -62.324219 66.183594 -61.921875 65.917969 -61.789062 C 65.652344 -61.523438 65.386719 -61.523438 65.121094 -61.523438 Z M 65.121094 -61.523438" transform="translate(325.999 137.823)"/></g></g></g><g fill="#005D80"><g><g><path d="M 27.140625 -12.460938 L 38.332031 -26.1875 C 39.601562 -27.777344 40.632812 -29.523438 41.265625 -31.425781 C 41.902344 -33.332031 42.21875 -35.234375 42.21875 -37.140625 L 42.21875 -38.410156 C 42.21875 -40.472656 41.742188 -42.539062 40.949219 -44.679688 C 40.15625 -46.824219 38.964844 -48.726562 37.378906 -50.472656 C 35.792969 -52.140625 33.886719 -53.488281 31.664062 -54.601562 C 29.363281 -55.710938 26.746094 -56.265625 23.886719 -56.265625 L 23.015625 -56.265625 C 20.949219 -56.265625 18.96875 -55.949219 17.222656 -55.3125 C 15.394531 -54.679688 13.808594 -53.886719 12.378906 -52.855469 C 10.953125 -51.824219 9.683594 -50.632812 8.648438 -49.28125 C 7.539062 -47.933594 6.746094 -46.503906 6.269531 -44.996094 C 6.109375 -44.601562 6.03125 -44.28125 5.953125 -43.964844 C 5.871094 -43.648438 5.871094 -43.25 5.871094 -42.855469 C 5.871094 -42.140625 5.953125 -41.425781 6.269531 -40.710938 C 6.585938 -39.917969 6.984375 -39.285156 7.617188 -38.648438 C 8.175781 -38.011719 8.886719 -37.539062 9.683594 -37.140625 C 10.476562 -36.742188 11.507812 -36.585938 12.617188 -36.585938 C 14.285156 -36.585938 15.632812 -36.980469 16.664062 -37.855469 C 17.699219 -38.726562 18.410156 -39.679688 18.886719 -40.710938 C 19.679688 -42.617188 21.109375 -43.648438 23.015625 -43.648438 L 23.886719 -43.648438 C 25.238281 -43.648438 26.425781 -43.09375 27.378906 -42.0625 C 28.332031 -41.03125 28.886719 -39.839844 28.886719 -38.410156 C 28.886719 -37.300781 28.808594 -36.503906 28.726562 -35.871094 C 28.570312 -35.234375 28.253906 -34.523438 27.695312 -33.808594 L 8.332031 -10 C 7.378906 -8.886719 6.90625 -7.617188 6.90625 -6.191406 C 6.90625 -5.476562 6.984375 -4.761719 7.300781 -4.046875 C 7.617188 -3.253906 8.015625 -2.617188 8.570312 -1.984375 C 9.125 -1.347656 9.839844 -0.871094 10.714844 -0.476562 C 11.507812 -0.078125 12.539062 0.078125 13.648438 0.078125 L 35.472656 0.078125 C 36.585938 0.078125 37.539062 -0.078125 38.410156 -0.476562 C 39.203125 -0.871094 39.917969 -1.347656 40.472656 -1.984375 C 41.03125 -2.617188 41.425781 -3.253906 41.742188 -4.046875 C 41.980469 -4.761719 42.140625 -5.476562 42.140625 -6.191406 C 42.140625 -6.90625 41.980469 -7.617188 41.664062 -8.414062 C 41.347656 -9.125 40.949219 -9.761719 40.394531 -10.394531 C 39.757812 -10.953125 39.046875 -11.429688 38.25 -11.824219 C 37.457031 -12.222656 36.503906 -12.460938 35.394531 -12.460938 Z M 27.140625 -12.460938" transform="translate(74.17 162.222)"/></g></g></g><g fill="#FF914D"><g><g><path d="M 22.5 -100.6875 C 20.507812 -100.6875 18.65625 -100.261719 17.230469 -99.546875 C 15.808594 -98.835938 14.527344 -97.980469 13.53125 -96.84375 C 12.390625 -95.703125 11.679688 -94.5625 11.109375 -93.28125 C 10.539062 -91.859375 10.394531 -90.578125 10.394531 -89.4375 C 10.394531 -88.011719 10.679688 -86.589844 11.25 -85.308594 C 11.820312 -84.023438 12.53125 -82.886719 13.671875 -81.890625 C 14.667969 -80.75 15.949219 -79.894531 17.515625 -79.324219 C 18.941406 -78.757812 20.648438 -78.472656 22.644531 -78.472656 L 39.164062 -78.472656 C 39.449219 -78.472656 39.875 -78.1875 40.304688 -77.902344 C 40.730469 -77.472656 41.015625 -76.90625 41.015625 -76.191406 L 41.015625 -11.25 C 41.015625 -9.96875 41.15625 -8.6875 41.726562 -7.40625 C 42.296875 -5.980469 43.007812 -4.84375 44.007812 -3.703125 C 45.003906 -2.5625 46.285156 -1.566406 47.710938 -0.855469 C 49.132812 -0.140625 50.984375 0.140625 52.980469 0.140625 C 54.972656 0.140625 56.679688 -0.140625 58.25 -0.855469 C 59.671875 -1.566406 60.953125 -2.421875 61.949219 -3.558594 C 62.949219 -4.699219 63.660156 -5.839844 64.230469 -7.261719 C 64.65625 -8.546875 64.941406 -9.828125 64.941406 -11.109375 L 64.941406 -76.050781 C 64.941406 -76.761719 65.085938 -77.332031 65.652344 -77.757812 C 66.082031 -78.042969 66.507812 -78.328125 66.792969 -78.328125 L 83.3125 -78.328125 C 85.308594 -78.328125 87.015625 -78.613281 88.582031 -79.324219 C 90.007812 -80.039062 91.289062 -80.890625 92.285156 -82.03125 C 93.28125 -83.027344 93.996094 -84.167969 94.5625 -85.59375 C 94.992188 -87.015625 95.277344 -88.296875 95.277344 -89.578125 C 95.277344 -90.71875 94.992188 -92 94.421875 -93.425781 C 93.851562 -94.707031 93.140625 -95.847656 92.144531 -96.984375 C 91.003906 -97.980469 89.722656 -98.835938 88.296875 -99.546875 C 86.875 -100.261719 85.164062 -100.6875 83.171875 -100.6875 Z M 22.5 -100.6875" transform="translate(.798 140.092)"/></g></g></g><g fill="#FF914D"><g><g><path d="M 35.316406 -72.519531 L 35.316406 -91.191406 C 35.316406 -92.492188 35.027344 -93.796875 34.449219 -95.242188 C 33.871094 -96.546875 33.148438 -97.703125 32.132812 -98.863281 C 30.976562 -99.875 29.671875 -100.742188 28.226562 -101.46875 C 26.777344 -102.191406 25.042969 -102.625 23.015625 -102.625 C 20.988281 -102.625 19.105469 -102.191406 17.660156 -101.46875 C 16.210938 -100.742188 14.910156 -99.875 13.894531 -98.71875 C 12.738281 -97.558594 12.015625 -96.402344 11.433594 -95.097656 C 10.855469 -93.652344 10.710938 -92.347656 10.710938 -91.046875 L 10.710938 -11.433594 C 10.710938 -10.132812 10.855469 -8.828125 11.433594 -7.527344 C 12.015625 -6.078125 12.738281 -4.921875 13.75 -3.761719 C 14.765625 -2.605469 16.066406 -1.59375 17.515625 -0.867188 C 18.960938 -0.144531 20.84375 0.144531 22.871094 0.144531 C 24.898438 0.144531 26.632812 -0.144531 28.226562 -0.867188 C 29.671875 -1.59375 30.976562 -2.460938 31.988281 -3.617188 C 33.003906 -4.777344 33.726562 -5.933594 34.304688 -7.382812 C 34.738281 -8.683594 35.027344 -9.988281 35.027344 -11.289062 L 35.027344 -35.898438 L 70.78125 -3.039062 C 71.792969 -2.027344 72.953125 -1.15625 74.398438 -0.578125 C 75.847656 0 77.441406 0.289062 79.320312 0.289062 C 81.347656 0.289062 83.085938 0 84.675781 -0.722656 C 86.125 -1.449219 87.425781 -2.316406 88.441406 -3.472656 C 89.453125 -4.632812 90.175781 -5.789062 90.757812 -7.238281 C 91.335938 -8.683594 91.625 -9.988281 91.625 -11.289062 C 91.625 -14.328125 90.320312 -17.082031 87.863281 -19.394531 L 50.082031 -53.992188 L 81.058594 -82.652344 C 82.359375 -83.808594 83.375 -85.109375 83.953125 -86.558594 C 84.53125 -88.007812 84.820312 -89.597656 84.820312 -91.046875 C 84.820312 -92.203125 84.53125 -93.507812 84.097656 -94.953125 C 83.519531 -96.257812 82.796875 -97.558594 81.925781 -98.71875 C 80.914062 -99.875 79.609375 -100.742188 78.164062 -101.46875 C 76.714844 -102.191406 74.980469 -102.625 72.953125 -102.625 C 71.070312 -102.625 69.480469 -102.335938 68.03125 -101.757812 C 66.582031 -101.179688 65.425781 -100.308594 64.414062 -99.296875 Z M 35.316406 -72.519531" transform="translate(118.01 142.356)"/></g></g></g></svg>